<svg version="1.1" id="Layer_1" xmlns="http://www.w3.org/2000/svg" xmlns:xlink="http://www.w3.org/1999/xlink" x="0px" y="0px" width="100%" viewBox="0 0 1024 1024" enable-background="new 0 0 1024 1024" xml:space="preserve">
<path fill="#000000" opacity="1.000000" stroke="none" d="
M813.000000,646.049683 
	C595.686707,646.039673 378.873352,646.029602 162.060043,646.018372 
	C155.856842,646.018066 155.677734,645.867981 155.676453,639.516296 
	C155.662964,572.689026 155.715714,505.861603 155.551056,439.034698 
	C155.538589,433.975037 156.955765,432.568451 162.007782,432.570831 
	C395.986633,432.681274 629.965576,432.675385 863.944397,432.551941 
	C869.029724,432.549255 870.416626,434.028412 870.405945,439.052399 
	C870.263306,506.045959 870.272400,573.040100 870.436401,640.033630 
	C870.448853,645.098572 868.538330,646.203491 863.994202,646.151794 
	C847.164551,645.960327 830.331665,646.059387 813.000000,646.049683 
M246.553940,495.905182 
	C232.799759,499.402832 223.207413,507.684204 218.394119,521.063049 
	C213.351837,535.078369 213.441742,549.144775 219.360764,562.919556 
	C230.129730,587.981140 263.869080,594.175659 282.609802,574.632202 
	C283.457367,573.748352 284.029602,572.236023 285.979187,572.851501 
	C286.099762,573.910461 286.349731,575.039673 286.337067,576.165955 
	C286.251251,583.779053 285.162598,583.889893 294.337738,583.848389 
	C294.670685,583.846924 295.003601,583.848083 295.336548,583.845825 
	C301.857697,583.801636 301.883881,583.801575 301.885315,577.100647 
	C301.890289,553.794861 301.881226,530.489075 301.865570,507.183258 
	C301.858307,496.363007 301.572968,496.192749 290.510101,497.113586 
	C287.629089,497.353363 286.298981,498.396484 286.312897,501.371002 
	C286.324768,503.905731 286.834259,506.557098 285.412933,509.881165 
	C275.412201,496.762573 262.380768,493.375183 246.553940,495.905182 
M729.026367,512.536255 
	C722.416565,521.960327 720.621094,532.609314 720.978943,543.836975 
	C721.841797,570.904358 743.055115,590.130127 773.782654,585.078003 
	C797.577148,581.165771 810.062317,564.478027 809.783569,539.241089 
	C809.560852,519.072632 799.048340,503.493622 781.636902,497.529022 
	C762.064758,490.824280 741.814880,496.416107 729.026367,512.536255 
M694.873962,571.358948 
	C703.138672,561.464233 705.695801,549.871582 704.997009,537.312500 
	C703.529663,510.941559 686.240723,494.746094 659.844177,495.158844 
	C641.678467,495.442902 627.653992,503.249786 620.805115,520.255127 
	C613.556885,538.251953 613.890076,556.441895 627.461792,571.804504 
	C644.410095,590.989319 676.482727,590.692200 694.873962,571.358948 
M572.010071,567.721741 
	C560.060852,573.729492 546.183044,572.934631 537.959351,564.561584 
	C524.781738,551.144714 526.657959,535.824524 533.890869,520.277588 
	C528.954590,520.277588 524.024048,520.294434 519.093628,520.269958 
	C516.870483,520.258911 515.872742,521.528625 515.262207,523.488281 
	C513.966248,527.648010 513.422302,531.914429 512.926636,536.228882 
	C509.676544,564.518005 529.085693,586.191956 557.630432,585.767090 
	C575.835144,585.496155 590.393921,578.139893 597.412231,560.832458 
	C604.992371,542.139587 603.692383,523.660461 589.513550,508.104218 
	C578.165771,495.654114 563.158569,493.216675 547.233643,496.090210 
	C536.034851,498.110962 527.032471,503.908234 520.193054,514.562012 
	C530.109680,513.170837 539.268555,515.262390 548.047180,511.034637 
	C553.207581,508.549377 559.183533,509.012939 564.747742,510.477600 
	C576.533936,513.580078 583.076294,521.878418 585.071411,533.389221 
	C587.401306,546.831604 584.868896,558.981201 572.010071,567.721741 
M366.544891,509.534546 
	C371.177612,510.376190 375.341797,512.289612 377.373810,516.678589 
	C379.167694,520.553223 381.757202,521.167236 385.425323,520.322266 
	C387.035583,519.951355 388.722382,519.807129 390.379425,519.767212 
	C393.471466,519.692688 394.002441,518.134155 393.221191,515.486023 
	C391.027435,508.049774 386.693420,502.337860 379.511292,499.250488 
	C366.190125,493.524200 352.592682,493.259888 339.254181,498.861664 
	C329.979004,502.756927 325.096436,510.147858 325.313965,520.470459 
	C325.523865,530.431885 330.664246,536.934875 339.648743,540.706909 
	C345.044067,542.971985 350.716766,544.285461 356.365417,545.707397 
	C362.485046,547.247742 368.784576,548.234863 374.501923,551.097778 
	C378.199677,552.949463 380.404358,555.794800 380.339874,560.186584 
	C380.276581,564.495483 378.163940,567.324768 374.551910,569.382629 
	C371.869202,570.911011 368.918701,571.641296 365.978851,571.848877 
	C354.017670,572.693298 342.351959,572.692200 336.297668,559.271362 
	C335.052155,556.510254 323.359039,557.128601 321.820709,559.822205 
	C321.267029,560.791626 321.642975,561.734253 321.902435,562.706177 
	C323.731689,569.558594 327.076935,575.598022 333.363831,579.042175 
	C350.511658,588.436218 368.117157,588.746643 385.308563,579.451538 
	C393.173798,575.199036 396.816498,567.474243 396.556671,558.497009 
	C396.287354,549.193115 391.673309,542.502869 383.105316,538.566833 
	C377.775909,536.118591 372.178864,534.619507 366.518158,533.226257 
	C360.070831,531.639343 353.413239,530.750488 347.317169,527.939819 
	C343.408508,526.137634 340.755951,523.216553 341.093872,518.623779 
	C341.427429,514.089844 344.336273,511.484344 348.449219,510.116333 
	C354.118195,508.230774 359.895813,508.269043 366.544891,509.534546 
M441.682556,583.852112 
	C469.558350,591.777710 493.706970,576.038147 496.693085,558.014709 
	C493.912170,557.168945 491.050507,556.394104 488.256836,555.423462 
	C485.159454,554.347351 483.041046,554.791992 481.403687,558.056885 
	C479.604187,561.645142 476.769012,564.505798 473.281372,566.681091 
	C455.803955,577.582153 429.727722,570.280945 427.366547,544.352905 
	C426.052032,529.918579 432.298462,517.044861 444.403595,511.769257 
	C454.480682,507.377502 472.802307,508.638428 480.668762,521.235229 
	C481.564545,522.669678 482.652863,524.139526 484.626099,523.683289 
	C488.580933,522.768860 492.780548,522.540527 496.460663,520.070984 
	C495.385071,516.061279 493.389648,512.880981 491.023834,509.836121 
	C478.119141,493.227295 452.976898,491.886810 437.055756,498.660095 
	C419.894745,505.960846 410.637482,522.604431 411.375092,543.811829 
	C412.024689,562.489258 422.823120,577.056152 441.682556,583.852112 
z" data-index="0" style="visibility: visible; opacity: 1;"></path>
<path fill="#000000" opacity="1.000000" stroke="none" d="
M231.693756,531.096802 
	C234.708603,519.847290 241.090652,512.112915 252.440353,510.063263 
	C263.213745,508.117676 272.845459,510.593994 280.301819,519.493408 
	C288.511414,529.291809 289.705383,555.063477 275.973785,566.073303 
	C260.840118,578.207397 237.101166,570.541138 231.988342,551.269531 
	C230.258835,544.750671 230.014862,538.131531 231.693756,531.096802 
z" data-index="1" style="visibility: visible;"></path>
<path fill="#000000" opacity="1.000000" stroke="none" d="
M771.408325,571.090576 
	C767.978577,571.230835 764.974487,571.480286 761.993591,571.313721 
	C753.482849,570.837952 746.673157,567.096436 741.891296,560.014160 
	C734.389282,548.903198 734.775818,530.058899 742.774719,519.935425 
	C750.034729,510.747101 759.970276,508.186127 770.976562,509.985352 
	C781.554565,511.714630 788.752991,518.150635 791.978088,528.395569 
	C796.162476,541.687927 794.820496,554.040771 784.532288,564.441162 
	C781.012695,567.999146 776.599976,569.836487 771.408325,571.090576 
z" data-index="2" style="visibility: visible; opacity: 1;"></path>
<path fill="#000000" opacity="1.000000" stroke="none" d="
M649.755859,569.618408 
	C627.876221,561.510925 627.466736,525.754944 644.204834,514.519714 
	C653.388245,508.355408 663.325684,507.837616 673.262878,512.039490 
	C683.262451,516.267700 687.865784,524.820251 689.193787,535.163879 
	C689.740601,539.423157 689.779053,543.827942 688.877869,548.105652 
	C684.924500,566.871399 668.949829,575.783691 649.755859,569.618408 
z" data-index="3" style="visibility: visible; opacity: 1;"></path>
</svg>