<svg version="1.1" id="Layer_1" xmlns="http://www.w3.org/2000/svg" xmlns:xlink="http://www.w3.org/1999/xlink" x="0px" y="0px" width="100%" viewBox="0 0 2048 2048" enable-background="new 0 0 2048 2048" xml:space="preserve">

<path fill="#232020" opacity="1.000000" stroke="none" d="
M567.972046,1149.547607 
	C557.659485,1149.547119 547.841187,1149.547119 537.434753,1149.547119 
	C537.434753,1141.896973 537.434753,1134.208130 537.434753,1126.396362 
	C536.564697,1126.597900 536.166260,1126.565186 536.018555,1126.742065 
	C502.982239,1166.291138 434.722168,1163.548584 401.596313,1117.997314 
	C375.422485,1082.005981 373.842010,1012.856323 417.272003,977.028503 
	C445.790985,953.501648 490.026031,949.540466 520.060425,968.594543 
	C526.118774,972.437988 531.242126,977.755188 536.848511,982.436218 
	C536.848511,975.662109 536.848511,968.446899 536.848511,960.872192 
	C551.167297,960.872192 565.064636,960.872192 579.303833,960.872192 
	C579.303833,1023.607605 579.303833,1086.317261 579.303833,1149.548096 
	C575.677551,1149.548096 572.071960,1149.548096 567.972046,1149.547607 
M472.265930,1114.603516 
	C490.516693,1116.982422 507.232300,1113.926758 520.511536,1100.104980 
	C536.595581,1083.363770 539.732239,1062.797119 535.787048,1041.080444 
	C532.082458,1020.688293 520.630615,1005.629272 500.304993,999.065308 
	C479.217438,992.255249 459.725067,995.497742 443.258331,1010.998718 
	C428.645233,1024.754883 424.860809,1042.518677 426.108063,1061.723633 
	C427.857117,1088.655029 445.940094,1109.537720 472.265930,1114.603516 
z" data-index="1" style="opacity: 1; visibility: visible; fill: rgb(255, 255, 255);"></path>
<path fill="#23201F" opacity="1.000000" stroke="none" d="
M1480.725220,989.711182 
	C1520.679443,944.992737 1595.708618,944.957520 1634.383911,990.381775 
	C1659.869019,1020.314331 1664.563721,1055.294678 1651.078857,1091.691284 
	C1637.834595,1127.438965 1610.559204,1147.558350 1573.107788,1152.837891 
	C1540.733765,1157.401855 1511.124146,1149.929321 1486.342285,1127.709351 
	C1473.125854,1115.859375 1464.627930,1100.838501 1460.648193,1083.503906 
	C1455.267090,1060.065063 1455.455566,1036.754150 1465.383423,1014.506836 
	C1469.262329,1005.814514 1475.389526,998.125610 1480.725220,989.711182 
M1502.000854,1073.337769 
	C1512.099854,1105.799438 1544.143066,1122.372559 1576.494873,1111.867065 
	C1598.415161,1104.749023 1612.780029,1084.498779 1614.505127,1058.283813 
	C1616.743286,1024.269531 1591.736938,996.499023 1558.537964,996.130249 
	C1518.356445,995.683899 1490.774658,1032.849487 1502.000854,1073.337769 
z" data-index="2" style="opacity: 1; visibility: visible; fill: rgb(255, 255, 255);"></path>
<path fill="#23201F" opacity="1.000000" stroke="none" d="
M1268.228027,1134.759644 
	C1240.449341,1113.644775 1229.250244,1085.027222 1230.572021,1051.525146 
	C1232.183594,1010.672668 1252.104858,981.507263 1289.618408,964.549561 
	C1348.355835,937.997620 1419.346436,974.317688 1429.862305,1036.409546 
	C1440.966431,1101.973267 1393.384766,1156.411133 1326.910278,1154.154785 
	C1305.597412,1153.431396 1285.920898,1147.635132 1268.228027,1134.759644 
M1361.035156,1004.389648 
	C1340.303223,993.295593 1319.412842,992.775269 1299.343628,1005.288208 
	C1274.589111,1020.722229 1265.910522,1054.335205 1278.558594,1082.307861 
	C1290.105591,1107.845215 1319.284912,1120.750977 1347.842041,1112.208252 
	C1371.086914,1105.254639 1384.328735,1088.886841 1387.351685,1065.063721 
	C1390.497070,1040.275879 1383.307129,1019.300537 1361.035156,1004.389648 
z" data-index="3" style="opacity: 1; visibility: visible; fill: rgb(255, 255, 255);"></path>
<path fill="#23201F" opacity="1.000000" stroke="none" d="
M1045.085083,1136.897949 
	C989.338867,1100.047119 989.841187,1005.465881 1051.609741,970.445129 
	C1090.318481,948.498535 1143.124878,953.507019 1174.896240,983.341919 
	C1197.766235,1004.817932 1206.337158,1032.095825 1204.416992,1062.943726 
	C1200.842896,1120.362305 1154.848267,1154.443359 1102.977051,1153.983154 
	C1082.242554,1153.799194 1062.814087,1148.755615 1045.085083,1136.897949 
M1160.906860,1044.823853 
	C1160.699463,1043.848511 1160.480713,1042.875488 1160.286255,1041.897461 
	C1151.704346,998.735901 1106.774536,987.456055 1078.163208,1002.412354 
	C1055.382812,1014.320679 1044.187500,1037.551514 1047.867065,1066.017944 
	C1050.861572,1089.185059 1068.179321,1108.369141 1090.274658,1112.995728 
	C1116.890869,1118.568848 1140.807983,1108.918823 1153.447510,1087.633179 
	C1161.205688,1074.567871 1162.800171,1060.457520 1160.906860,1044.823853 
z" data-index="4" style="opacity: 1; visibility: visible; fill: rgb(255, 255, 255);"></path>
<path fill="#23201F" opacity="1.000000" stroke="none" d="
M676.560303,995.169739 
	C675.205872,995.563843 674.240295,995.830505 673.303589,996.175659 
	C666.570251,998.656860 661.620361,1002.843323 661.200012,1010.474426 
	C660.775024,1018.190430 665.206543,1023.320740 671.970154,1025.613770 
	C683.444031,1029.503784 695.237915,1032.438599 706.837219,1035.972168 
	C719.709839,1039.893677 732.869690,1043.175537 745.267212,1048.282715 
	C764.134399,1056.055054 773.693970,1071.292480 774.857178,1091.476807 
	C776.076538,1112.635376 768.269592,1129.734375 749.787537,1140.813354 
	C731.293457,1151.899536 710.689209,1154.501221 689.586304,1153.579590 
	C661.060730,1152.333984 635.243896,1142.993530 612.001221,1126.467163 
	C611.212952,1125.906616 610.537231,1125.187866 609.521179,1124.287720 
	C616.377319,1113.553467 623.151184,1102.947998 630.092651,1092.080078 
	C641.577515,1100.993408 653.664673,1107.520264 666.993469,1111.552246 
	C683.356140,1116.501953 699.953369,1118.109741 716.748413,1113.955933 
	C719.762878,1113.210449 722.770081,1111.914062 725.411804,1110.276978 
	C734.881592,1104.408203 735.847290,1090.691406 726.518677,1084.692505 
	C720.240295,1080.655273 712.745117,1078.210693 705.498840,1076.039673 
	C689.895386,1071.364990 673.993774,1067.677612 658.421997,1062.907593 
	C647.537415,1059.573364 637.305237,1054.491333 629.801758,1045.471924 
	C610.615784,1022.409607 617.615723,984.572571 643.756348,968.779358 
	C656.220398,961.249023 669.940063,958.239258 684.187683,957.398743 
	C713.574219,955.664978 741.109497,961.665894 766.026001,977.920593 
	C767.131836,978.641968 768.171753,979.464294 769.683167,980.558838 
	C763.373291,991.279114 757.102417,1001.933289 750.841736,1012.570068 
	C727.836304,998.744019 703.919128,990.456360 676.560303,995.169739 
z" data-index="5" style="opacity: 1; visibility: visible; fill: rgb(255, 255, 255);"></path>
<path fill="#23201F" opacity="1.000000" stroke="none" d="
M964.125061,1010.033691 
	C958.079346,1013.572693 952.362061,1016.949219 946.649231,1020.323059 
	C924.176270,985.645508 876.693481,991.581970 856.578369,1013.653564 
	C834.598206,1037.771484 836.310059,1079.765381 860.459351,1101.147217 
	C880.955872,1119.294800 925.901428,1123.100098 948.504456,1088.609375 
	C960.077454,1095.232178 971.676392,1101.869873 983.238831,1108.486816 
	C967.748779,1141.965698 920.625000,1160.732788 875.135437,1151.899902 
	C830.440613,1143.221313 800.290039,1106.920166 798.311035,1059.403320 
	C796.407776,1013.703491 824.000244,974.231079 866.022583,961.566772 
	C909.467712,948.473633 960.739746,960.142029 982.125671,999.829651 
	C976.244690,1003.171326 970.349060,1006.521362 964.125061,1010.033691 
z" data-index="6" style="opacity: 1; visibility: visible; fill: rgb(255, 255, 255);"></path>
<path fill="#211F1E" opacity="1.000000" stroke="none" d="
M1225.728516,964.651672 
	C1231.947998,951.416687 1242.191040,942.261047 1252.599731,934.539551 
	C1250.126709,924.482178 1247.472168,915.073364 1245.625244,905.508545 
	C1244.861084,901.550354 1245.280762,897.146240 1246.102661,893.137817 
	C1249.189331,878.084595 1263.410522,870.920715 1277.603394,876.958984 
	C1284.485352,879.886780 1289.586060,884.889893 1293.062988,891.312866 
	C1296.616577,897.877136 1299.671509,904.724670 1302.670288,911.568542 
	C1303.693359,913.903625 1304.629883,914.534851 1307.369995,914.490295 
	C1323.980713,914.219971 1340.598022,914.355530 1357.713013,914.355530 
	C1359.315063,910.333435 1361.002441,905.848389 1362.878052,901.443665 
	C1366.174194,893.702881 1370.374268,886.533447 1377.155518,881.286865 
	C1385.231934,875.038025 1394.199097,872.766052 1403.815186,877.059753 
	C1413.379883,881.330627 1417.161377,890.022095 1416.521973,899.557129 
	C1415.897583,908.869995 1412.939697,918.034668 1410.880737,927.236267 
	C1410.453979,929.143494 1409.475830,930.927368 1408.622070,933.097778 
	C1429.349609,948.150269 1441.915649,967.849609 1443.566406,994.763367 
	C1419.412842,949.507263 1381.115356,928.820068 1332.041870,928.508301 
	C1283.084595,928.197266 1245.001465,949.371460 1218.896362,992.420288 
	C1219.648804,982.399841 1221.649658,973.474792 1225.728516,964.651672 
M1265.405762,920.985779 
	C1266.114258,922.604309 1266.822632,924.222839 1267.494995,925.759216 
	C1274.416626,923.150879 1281.050537,920.650940 1288.081665,918.001343 
	C1285.415894,908.885620 1282.177368,899.970215 1274.882935,893.518372 
	C1272.651489,891.544739 1268.258789,890.210693 1265.627686,891.038147 
	C1263.333618,891.759644 1261.769043,895.786743 1260.574951,898.642944 
	C1259.878418,900.308899 1260.192993,902.631409 1260.661865,904.506226 
	C1261.985718,909.799744 1263.623901,915.014526 1265.405762,920.985779 
M1378.871094,904.431946 
	C1377.101685,908.811157 1375.332275,913.190430 1373.577393,917.533508 
	C1381.106689,920.242249 1387.875122,922.677246 1394.889160,925.200623 
	C1398.195679,916.572083 1402.249878,908.211792 1401.029663,898.807739 
	C1400.673584,896.064575 1398.853271,892.184082 1396.715942,891.346436 
	C1394.226685,890.370972 1389.863281,891.207275 1387.729736,892.970947 
	C1384.270630,895.830444 1381.965576,900.085815 1378.871094,904.431946 
z" data-index="7" style="opacity: 1; visibility: visible; fill: rgb(255, 255, 255);"></path>

<path fill="#FEFEFE" opacity="1.000000" stroke="none" d="
M1501.918701,1072.935791 
	C1490.774658,1032.849487 1518.356445,995.683899 1558.537964,996.130249 
	C1591.736938,996.499023 1616.743286,1024.269531 1614.505127,1058.283813 
	C1612.780029,1084.498779 1598.415161,1104.749023 1576.494873,1111.867065 
	C1544.143066,1122.372559 1512.099854,1105.799438 1501.918701,1072.935791 
z" data-index="9" style="opacity: 1; visibility: hidden;"></path>

<path fill="#FEFEFE" opacity="1.000000" stroke="none" d="
M1160.938721,1045.263428 
	C1162.800171,1060.457520 1161.205688,1074.567871 1153.447510,1087.633179 
	C1140.807983,1108.918823 1116.890869,1118.568848 1090.274658,1112.995728 
	C1068.179321,1108.369141 1050.861572,1089.185059 1047.867065,1066.017944 
	C1044.187500,1037.551514 1055.382812,1014.320679 1078.163208,1002.412354 
	C1106.774536,987.456055 1151.704346,998.735901 1160.286255,1041.897461 
	C1160.480713,1042.875488 1160.699463,1043.848511 1160.938721,1045.263428 
z" data-index="11" style="opacity: 1; visibility: hidden;"></path>

<path fill="#FEFEFE" opacity="1.000000" stroke="none" d="
M1379.022217,904.091919 
	C1381.965576,900.085815 1384.270630,895.830444 1387.729736,892.970947 
	C1389.863281,891.207275 1394.226685,890.370972 1396.715942,891.346436 
	C1398.853271,892.184082 1400.673584,896.064575 1401.029663,898.807739 
	C1402.249878,908.211792 1398.195679,916.572083 1394.889160,925.200623 
	C1387.875122,922.677246 1381.106689,920.242249 1373.577393,917.533508 
	C1375.332275,913.190430 1377.101685,908.811157 1379.022217,904.091919 
z" data-index="13" style="opacity: 1; visibility: hidden;"></path>
</svg>